<svg display="none" xmlns="http://www.w3.org/2000/svg">
   <symbol id="fb" viewBox="0 0 320 512">
      <g>
         <path 
            d="M279.14 288l14.22-92.66h-88.91v-60.13c0-25.35 12.42-50.06 52.24-50.06h40.42V6.26S260.43 0 225.36 0c-73.22 0-121.08 44.38-121.08 124.72v70.62H22.89V288h81.39v224h100.17V288z"/>
      </g>
   </symbol>
   <symbol id="tw" viewBox="0 0 512 512">
      <g>
         <path 
            d="M459.37 151.716c.325 4.548.325 9.097.325 13.645 0 138.72-105.583 298.558-298.558 298.558-59.452 0-114.68-17.219-161.137-47.106 8.447.974 16.568 1.299 25.34 1.299 49.055 0 94.213-16.568 130.274-44.832-46.132-.975-84.792-31.188-98.112-72.772 6.498.974 12.995 1.624 19.818 1.624 9.421 0 18.843-1.3 27.614-3.573-48.081-9.747-84.143-51.98-84.143-102.985v-1.299c13.969 7.797 30.214 12.67 47.431 13.319-28.264-18.843-46.781-51.005-46.781-87.391 0-19.492 5.197-37.36 14.294-52.954 51.655 63.675 129.3 105.258 216.365 109.807-1.624-7.797-2.599-15.918-2.599-24.04 0-57.828 46.782-104.934 104.934-104.934 30.213 0 57.502 12.67 76.67 33.137 23.715-4.548 46.456-13.32 66.599-25.34-7.798 24.366-24.366 44.833-46.132 57.827 21.117-2.273 41.584-8.122 60.426-16.243-14.292 20.791-32.161 39.308-52.628 54.253z"/>
      </g>
   </symbol>
   <symbol id="gl" viewBox="0 0 640 512">
      <g>
         <path 
            d="M386.061 228.496c1.834 9.692 3.143 19.384 3.143 31.956C389.204 370.205 315.599 448 204.8 448c-106.084 0-192-85.915-192-192s85.916-192 192-192c51.864 0 95.083 18.859 128.611 50.292l-52.126 50.03c-14.145-13.621-39.028-29.599-76.485-29.599-65.484 0-118.92 54.221-118.92 121.277 0 67.056 53.436 121.277 118.92 121.277 75.961 0 104.513-54.745 108.965-82.773H204.8v-66.009h181.261zm185.406 6.437V179.2h-56.001v55.733h-55.733v56.001h55.733v55.733h56.001v-55.733H627.2v-56.001h-55.733z"/>
      </g>
   </symbol>
   <symbol id="in" viewBox="0 0 448 512">
      <g>
         <path 
            d="M100.28 448H7.4V148.9h92.88zM53.79 108.1C24.09 108.1 0 83.5 0 53.8a53.79 53.79 0 0 1 107.58 0c0 29.7-24.1 54.3-53.79 54.3zM447.9 448h-92.68V302.4c0-34.7-.7-79.2-48.29-79.2-48.29 0-55.69 37.7-55.69 76.7V448h-92.78V148.9h89.08v40.8h1.3c12.4-23.5 42.69-48.3 87.88-48.3 94 0 111.28 61.9 111.28 142.3V448z"/>
      </g>
   </symbol>
   <symbol id="fire" viewBox="0 0 384 512">
      <g>
         <path 
            d="M112.5 301.4c0-73.8 105.1-122.5 105.1-203 0-47.1-34-88-39.1-90.4.4 3.3.6 6.7.6 10C179.1 110.1 32 171.9 32 286.6c0 49.8 32.2 79.2 66.5 108.3 65.1 46.7 78.1 71.4 78.1 86.6 0 10.1-4.8 17-4.8 22.3 13.1-16.7 17.4-31.9 17.5-46.4 0-29.6-21.7-56.3-44.2-86.5-16-22.3-32.6-42.6-32.6-69.5zm205.3-39c-12.1-66.8-78-124.4-94.7-130.9l4 7.2c2.4 5.1 3.4 10.9 3.4 17.1 0 44.7-54.2 111.2-56.6 116.7-2.2 5.1-3.2 10.5-3.2 15.8 0 20.1 15.2 42.1 17.9 42.1 2.4 0 56.6-55.4 58.1-87.7 6.4 11.7 9.1 22.6 9.1 33.4 0 41.2-41.8 96.9-41.8 96.9 0 11.6 31.9 53.2 35.5 53.2 1 0 2.2-1.4 3.2-2.4 37.9-39.3 67.3-85 67.3-136.8 0-8-.7-16.2-2.2-24.6z"/>
      </g>
   </symbol>
   <symbol id="lf_angle" viewBox="0 0 256 512">
      <g>
         <path 
            d="M192 448c-8.188 0-16.38-3.125-22.62-9.375l-160-160c-12.5-12.5-12.5-32.75 0-45.25l160-160c12.5-12.5 32.75-12.5 45.25 0s12.5 32.75 0 45.25L77.25 256l137.4 137.4c12.5 12.5 12.5 32.75 0 45.25C208.4 444.9 200.2 448 192 448z"/>
      </g>
   </symbol>
   <symbol id="rg_angle" viewBox="0 0 256 512">
      <g>
         <path 
            d="M64 448c-8.188 0-16.38-3.125-22.62-9.375c-12.5-12.5-12.5-32.75 0-45.25L178.8 256L41.38 118.6c-12.5-12.5-12.5-32.75 0-45.25s32.75-12.5 45.25 0l160 160c12.5 12.5 12.5 32.75 0 45.25l-160 160C80.38 444.9 72.19 448 64 448z"/>
      </g>
   </symbol>
   <symbol id="circle" viewBox="0 0 512 512">
      <g>
         <path 
            d="M512 256C512 397.4 397.4 512 256 512C114.6 512 0 397.4 0 256C0 114.6 114.6 0 256 0C397.4 0 512 114.6 512 256z"/>
      </g>
   </symbol>
</svg>